<svg id="svg" version="1.1" xmlns="http://www.w3.org/2000/svg" xmlns:xlink="http://www.w3.org/1999/xlink" width="400" height="456.03448275862064" viewBox="0, 0, 400,456.03448275862064"><g id="svgg"><path id="path0" d="M119.400 40.837 C 115.362 41.291,113.623 41.639,113.373 42.044 C 113.252 42.240,112.835 42.400,112.447 42.400 C 110.740 42.400,103.593 46.486,100.692 49.120 C 94.707 54.555,91.945 58.753,88.404 67.800 C 87.866 69.176,87.273 71.692,86.803 74.600 C 86.197 78.350,86.498 304.552,87.116 309.600 C 87.504 312.767,87.827 314.757,88.775 319.800 C 89.489 323.600,92.486 333.630,93.795 336.600 C 94.086 337.260,94.810 338.970,95.405 340.400 C 103.821 360.635,120.601 378.078,138.800 385.510 C 139.350 385.735,140.430 386.189,141.200 386.520 C 142.907 387.253,148.844 389.168,150.900 389.649 C 151.725 389.842,153.165 390.191,154.100 390.425 C 163.257 392.715,170.604 393.153,200.251 393.179 C 228.337 393.203,225.718 392.758,225.555 397.479 C 225.287 405.245,227.483 409.954,232.604 412.600 L 234.927 413.800 267.964 413.800 C 298.115 413.800,301.122 413.741,302.400 413.126 C 304.848 411.948,307.079 409.107,307.748 406.314 L 308.008 405.227 323.104 405.114 L 338.200 405.000 339.631 404.031 C 340.418 403.498,341.498 402.418,342.031 401.631 L 343.000 400.200 343.000 382.600 L 343.000 365.000 342.072 363.699 C 341.562 362.984,340.496 361.904,339.704 361.299 L 338.264 360.200 323.832 360.099 C 307.642 359.986,307.600 359.982,307.600 358.630 C 307.600 357.166,305.982 354.455,304.149 352.848 C 300.775 349.889,302.227 350.000,267.004 350.000 L 235.514 350.000 233.057 351.176 C 227.349 353.907,225.908 356.623,225.681 365.075 C 225.564 369.428,225.359 371.591,225.054 371.675 C 223.931 371.984,194.343 371.238,192.200 370.846 C 185.403 369.604,183.424 369.068,178.428 367.114 C 171.159 364.272,165.510 360.963,161.503 357.199 C 160.346 356.112,159.285 355.218,159.145 355.212 C 158.189 355.168,152.876 347.447,151.705 344.400 C 150.036 340.056,149.845 338.994,149.833 333.999 C 149.821 328.923,149.977 328.131,151.727 324.400 C 153.367 320.902,162.639 312.800,165.001 312.800 C 165.107 312.800,166.860 311.748,168.897 310.462 C 170.934 309.175,174.580 306.896,177.000 305.395 C 183.597 301.306,190.126 297.227,194.600 294.401 C 196.800 293.012,199.140 291.570,199.800 291.197 C 200.460 290.824,202.530 289.562,204.400 288.393 C 206.270 287.223,209.690 285.097,212.000 283.667 C 214.310 282.237,218.132 279.837,220.494 278.334 C 222.856 276.830,224.857 275.600,224.940 275.600 C 225.024 275.600,227.862 273.862,231.246 271.738 C 234.631 269.613,238.930 266.943,240.800 265.802 C 242.670 264.662,246.180 262.509,248.600 261.018 C 251.020 259.527,253.540 257.995,254.200 257.615 C 254.860 257.234,256.399 256.282,257.620 255.500 C 258.841 254.718,260.561 253.656,261.443 253.139 C 262.324 252.623,264.612 251.210,266.527 250.000 C 268.441 248.790,270.325 247.620,270.713 247.400 C 271.565 246.917,277.585 243.169,282.800 239.875 C 284.890 238.555,287.140 237.166,287.800 236.788 C 288.460 236.411,291.250 234.706,294.000 233.000 C 296.750 231.294,299.540 229.588,300.200 229.208 C 301.453 228.488,305.619 225.899,311.903 221.936 C 313.940 220.651,315.717 219.600,315.852 219.600 C 316.482 219.600,321.467 215.696,323.617 213.519 C 338.820 198.125,339.705 174.767,325.674 159.177 C 322.687 155.858,318.677 153.007,309.400 147.609 C 308.100 146.852,303.553 144.072,296.600 139.781 C 288.407 134.725,283.805 131.910,282.600 131.216 C 281.940 130.836,280.093 129.687,278.496 128.662 C 276.899 127.638,275.414 126.800,275.196 126.800 C 274.978 126.800,274.800 126.620,274.800 126.400 C 274.800 126.180,274.641 126.000,274.446 126.000 C 274.251 126.000,272.136 124.798,269.746 123.328 C 260.666 117.746,256.961 115.484,255.800 114.815 C 255.140 114.434,253.596 113.479,252.370 112.694 C 251.143 111.908,249.523 110.914,248.770 110.485 C 248.016 110.057,245.510 108.543,243.200 107.121 C 240.890 105.700,238.550 104.281,238.000 103.968 C 237.450 103.656,236.910 103.310,236.800 103.200 C 236.690 103.090,236.150 102.744,235.600 102.432 C 235.050 102.119,232.710 100.699,230.400 99.276 C 224.708 95.769,219.254 92.453,217.800 91.616 C 217.140 91.236,215.250 90.058,213.600 89.000 C 211.950 87.942,210.060 86.769,209.400 86.395 C 208.740 86.021,206.220 84.494,203.800 83.001 C 198.600 79.795,193.564 76.710,188.600 73.690 C 186.620 72.485,184.248 70.982,183.328 70.350 C 182.408 69.717,181.555 69.200,181.431 69.200 C 181.307 69.200,179.540 68.150,177.503 66.866 C 173.377 64.266,167.243 60.459,161.800 57.121 C 151.024 50.512,149.219 49.396,147.264 48.128 C 138.066 42.167,128.904 39.770,119.400 40.837 M128.169 62.606 C 130.254 63.238,135.082 65.752,137.872 67.658 C 138.792 68.286,139.642 68.800,139.762 68.800 C 139.882 68.800,141.789 69.970,144.000 71.400 C 146.211 72.830,148.095 74.000,148.186 74.000 C 148.278 74.000,150.119 75.109,152.276 76.465 C 154.434 77.820,157.280 79.593,158.600 80.403 C 159.920 81.214,162.530 82.832,164.400 83.998 C 166.270 85.164,168.340 86.426,169.000 86.802 C 171.083 87.989,180.956 94.064,182.000 94.801 C 182.550 95.189,183.630 95.863,184.400 96.298 C 185.806 97.093,189.315 99.231,197.298 104.155 C 199.662 105.614,203.532 107.997,205.898 109.451 C 208.264 110.906,210.678 112.434,211.262 112.848 C 211.846 113.262,212.429 113.600,212.559 113.600 C 212.688 113.600,214.460 114.653,216.497 115.941 C 218.534 117.228,221.910 119.328,224.000 120.608 C 226.090 121.887,228.880 123.596,230.200 124.404 C 233.586 126.478,240.409 130.698,244.313 133.133 C 246.136 134.270,247.801 135.200,248.013 135.200 C 248.226 135.200,248.400 135.380,248.400 135.600 C 248.400 135.820,248.557 136.000,248.749 136.000 C 248.940 136.000,251.055 137.193,253.449 138.652 C 255.842 140.110,258.282 141.595,258.871 141.952 C 259.774 142.498,266.173 146.402,273.569 150.918 C 274.576 151.532,275.715 152.138,276.100 152.264 C 276.485 152.390,276.800 152.652,276.800 152.847 C 276.800 153.041,276.985 153.200,277.212 153.200 C 277.438 153.200,279.426 154.370,281.630 155.800 C 283.834 157.230,285.724 158.400,285.830 158.400 C 285.936 158.400,287.826 159.570,290.030 161.000 C 292.234 162.430,294.112 163.600,294.204 163.600 C 294.297 163.600,295.907 164.590,297.782 165.800 C 299.658 167.010,301.286 168.000,301.400 168.000 C 302.105 168.000,308.899 172.796,310.359 174.324 C 317.994 182.315,315.110 195.955,304.664 201.267 C 303.749 201.732,301.975 202.807,300.722 203.656 C 299.469 204.505,298.349 205.200,298.234 205.200 C 298.118 205.200,297.253 205.716,296.312 206.346 C 295.370 206.976,293.430 208.208,292.000 209.083 C 290.570 209.958,287.423 211.917,285.006 213.437 C 282.589 214.957,280.249 216.394,279.806 216.631 C 279.363 216.868,277.290 218.144,275.200 219.466 C 267.285 224.475,264.762 226.000,264.387 226.000 C 264.174 226.000,264.000 226.180,264.000 226.400 C 264.000 226.620,263.826 226.800,263.614 226.800 C 263.402 226.800,261.693 227.790,259.818 229.000 C 257.942 230.210,256.324 231.200,256.222 231.200 C 256.120 231.200,254.234 232.370,252.030 233.800 C 249.826 235.230,247.932 236.400,247.821 236.400 C 247.710 236.400,245.811 237.570,243.600 239.000 C 241.389 240.430,239.405 241.600,239.190 241.600 C 238.976 241.600,238.800 241.780,238.800 242.000 C 238.800 242.220,238.633 242.400,238.428 242.400 C 238.035 242.400,234.538 244.534,226.514 249.672 C 223.827 251.392,221.530 252.800,221.409 252.800 C 221.289 252.800,219.978 253.590,218.495 254.556 C 217.013 255.521,213.100 257.976,209.800 260.010 C 206.500 262.045,202.000 264.832,199.800 266.203 C 197.600 267.575,191.660 271.260,186.600 274.393 C 181.540 277.526,176.050 280.942,174.400 281.985 C 171.193 284.011,165.458 287.541,164.304 288.200 C 163.918 288.420,161.757 289.749,159.502 291.152 C 144.723 300.349,142.487 302.024,139.211 306.353 C 138.109 307.809,137.066 309.180,136.892 309.400 C 136.035 310.484,133.540 316.079,132.967 318.200 C 131.625 323.167,131.430 324.756,131.442 330.600 C 131.453 336.075,131.617 337.687,132.724 343.200 C 133.914 349.128,138.842 359.151,142.741 363.576 C 143.408 364.332,143.863 365.097,143.753 365.276 C 143.496 365.693,142.507 365.697,142.333 365.282 C 142.260 365.107,140.168 363.561,137.685 361.847 C 132.244 358.091,128.799 355.003,124.090 349.660 C 121.089 346.255,116.746 338.601,114.523 332.800 C 113.975 331.370,113.375 329.840,113.190 329.400 C 112.872 328.646,111.621 324.848,110.819 322.200 C 110.494 321.128,110.003 319.085,108.782 313.723 C 108.572 312.800,108.400 311.359,108.400 310.520 C 108.400 309.681,108.214 308.366,107.986 307.597 C 107.470 305.854,107.454 78.423,107.970 77.093 C 108.161 76.602,108.556 75.390,108.849 74.400 C 111.399 65.787,120.447 60.263,128.169 62.606 M316.320 369.280 C 317.020 369.980,317.007 395.825,316.307 396.258 C 315.738 396.609,308.572 396.554,307.989 396.193 C 307.384 395.819,307.472 369.888,308.080 369.280 C 308.383 368.977,309.902 368.800,312.200 368.800 C 314.498 368.800,316.017 368.977,316.320 369.280 M333.963 369.356 C 334.273 369.729,334.388 371.604,334.312 375.056 L 334.200 380.200 328.800 380.200 L 323.400 380.200 323.288 375.056 C 323.145 368.505,322.885 368.800,328.800 368.800 C 332.325 368.800,333.617 368.939,333.963 369.356 M334.313 390.767 C 334.450 396.795,334.775 396.455,328.859 396.455 C 322.772 396.455,323.200 396.865,323.200 391.043 C 323.200 385.076,322.683 385.555,328.978 385.689 L 334.200 385.800 334.313 390.767 " stroke="none" fill="#491eb7" fill-rule="evenodd"></path><path id="path1" d="M0.000 228.000 L 0.000 456.000 200.000 456.000 L 400.000 456.000 400.000 228.000 L 400.000 0.000 200.000 0.000 L 0.000 0.000 0.000 228.000 M129.400 40.019 C 132.201 40.423,134.389 40.990,135.695 41.649 C 136.077 41.842,136.741 42.000,137.171 42.000 C 137.601 42.000,138.064 42.180,138.200 42.400 C 138.336 42.620,138.786 42.800,139.199 42.800 C 140.089 42.800,143.847 44.809,146.448 46.674 C 147.464 47.403,148.422 48.000,148.576 48.000 C 148.730 48.000,149.641 48.540,150.600 49.200 C 151.559 49.860,152.459 50.400,152.599 50.400 C 152.739 50.400,153.443 50.850,154.164 51.400 C 154.886 51.950,155.684 52.400,155.938 52.400 C 156.192 52.400,156.400 52.559,156.400 52.753 C 156.400 52.948,156.715 53.213,157.100 53.342 C 158.154 53.697,164.339 57.454,164.800 58.019 C 164.910 58.154,165.585 58.519,166.300 58.830 C 167.015 59.141,167.600 59.531,167.600 59.698 C 167.600 59.864,167.778 60.000,167.996 60.000 C 168.520 60.000,174.162 63.609,174.333 64.054 C 174.407 64.244,174.812 64.400,175.233 64.400 C 175.655 64.400,176.000 64.580,176.000 64.800 C 176.000 65.020,176.270 65.200,176.600 65.200 C 176.930 65.200,177.200 65.380,177.200 65.600 C 177.200 65.820,177.389 66.000,177.621 66.000 C 177.853 66.000,179.561 66.990,181.417 68.200 C 183.274 69.410,184.974 70.400,185.196 70.400 C 185.418 70.400,185.600 70.580,185.600 70.800 C 185.600 71.020,185.782 71.200,186.004 71.200 C 186.226 71.200,187.942 72.190,189.818 73.400 C 191.693 74.610,193.305 75.600,193.400 75.600 C 193.495 75.600,195.107 76.590,196.982 77.800 C 198.858 79.010,200.574 80.000,200.796 80.000 C 201.018 80.000,201.200 80.159,201.200 80.353 C 201.200 80.548,201.515 80.813,201.900 80.942 C 203.233 81.391,210.533 85.952,210.733 86.461 C 210.807 86.647,211.212 86.800,211.633 86.800 C 212.055 86.800,212.400 86.980,212.400 87.200 C 212.400 87.420,212.582 87.600,212.804 87.600 C 213.026 87.600,214.742 88.590,216.618 89.800 C 218.493 91.010,220.202 92.000,220.414 92.000 C 220.626 92.000,220.800 92.180,220.800 92.400 C 220.800 92.620,220.958 92.800,221.152 92.800 C 221.510 92.800,224.847 94.747,227.003 96.214 C 227.662 96.662,228.695 97.278,229.300 97.582 C 229.905 97.886,230.400 98.285,230.400 98.468 C 230.400 98.650,230.760 98.800,231.200 98.800 C 231.640 98.800,232.000 98.980,232.000 99.200 C 232.000 99.420,232.184 99.600,232.409 99.600 C 232.770 99.600,235.881 101.467,236.400 101.996 C 236.510 102.108,237.030 102.442,237.555 102.738 C 238.080 103.033,239.070 103.590,239.755 103.975 C 240.440 104.360,242.307 105.513,243.904 106.538 C 245.501 107.562,246.986 108.400,247.204 108.400 C 247.422 108.400,247.600 108.559,247.600 108.753 C 247.600 108.948,247.915 109.210,248.300 109.336 C 249.143 109.612,251.646 111.079,255.312 113.448 C 256.804 114.412,258.199 115.200,258.412 115.200 C 258.626 115.200,258.800 115.380,258.800 115.600 C 258.800 115.820,258.977 116.000,259.192 116.000 C 259.408 116.000,260.569 116.630,261.773 117.400 C 262.977 118.170,264.150 118.800,264.381 118.800 C 264.611 118.800,264.800 118.980,264.800 119.200 C 264.800 119.420,265.070 119.600,265.400 119.600 C 265.730 119.600,266.000 119.780,266.000 120.000 C 266.000 120.220,266.174 120.400,266.386 120.400 C 266.598 120.400,268.307 121.390,270.182 122.600 C 272.058 123.810,273.774 124.800,273.996 124.800 C 274.218 124.800,274.400 124.959,274.400 125.153 C 274.400 125.348,274.715 125.610,275.100 125.736 C 275.918 126.003,277.868 127.150,281.904 129.738 C 283.501 130.762,284.986 131.600,285.204 131.600 C 285.422 131.600,285.600 131.780,285.600 132.000 C 285.600 132.220,285.782 132.400,286.004 132.400 C 286.226 132.400,287.942 133.390,289.818 134.600 C 291.693 135.810,293.324 136.800,293.442 136.800 C 293.560 136.800,294.441 137.340,295.400 138.000 C 296.359 138.660,297.251 139.200,297.381 139.200 C 297.617 139.200,300.821 141.211,301.200 141.596 C 301.310 141.708,301.830 142.042,302.355 142.338 C 302.880 142.633,303.870 143.191,304.555 143.577 C 305.240 143.962,306.826 144.935,308.081 145.739 C 309.335 146.543,310.550 147.200,310.781 147.200 C 311.011 147.200,311.200 147.380,311.200 147.600 C 311.200 147.820,311.470 148.000,311.800 148.000 C 312.130 148.000,312.401 148.135,312.403 148.300 C 312.405 148.465,312.810 148.795,313.303 149.033 C 315.295 149.994,318.199 151.754,318.952 152.455 C 319.391 152.865,319.895 153.200,320.071 153.200 C 321.070 153.200,329.600 161.730,329.600 162.729 C 329.600 162.905,329.919 163.398,330.308 163.825 C 331.274 164.882,334.000 170.357,334.000 171.239 C 334.000 171.632,334.180 172.064,334.400 172.200 C 334.620 172.336,334.800 172.966,334.800 173.600 C 334.800 174.234,334.980 174.864,335.200 175.000 C 335.420 175.136,335.600 176.036,335.600 177.000 C 335.600 177.964,335.780 178.864,336.000 179.000 C 336.535 179.330,336.535 191.070,336.000 191.400 C 335.780 191.536,335.600 192.359,335.600 193.229 C 335.600 194.099,335.438 195.123,335.239 195.505 C 335.040 195.887,334.643 197.010,334.356 198.000 C 333.767 200.031,331.210 205.330,330.721 205.533 C 330.544 205.607,330.400 205.839,330.400 206.049 C 330.400 207.254,324.369 214.374,320.954 217.200 C 319.816 218.142,319.291 218.483,317.100 219.700 C 316.605 219.975,316.110 220.305,316.000 220.434 C 315.592 220.912,311.171 223.600,310.792 223.600 C 310.577 223.600,310.400 223.780,310.400 224.000 C 310.400 224.220,310.040 224.400,309.600 224.400 C 309.160 224.400,308.800 224.580,308.800 224.800 C 308.800 225.020,308.622 225.200,308.404 225.200 C 308.073 225.200,303.534 228.074,302.200 229.128 C 301.980 229.302,301.215 229.703,300.500 230.020 C 299.785 230.336,299.200 230.731,299.200 230.898 C 299.200 231.064,298.992 231.200,298.738 231.200 C 298.484 231.200,297.706 231.635,297.009 232.166 C 295.449 233.356,292.443 235.156,291.500 235.464 C 291.115 235.590,290.800 235.852,290.800 236.047 C 290.800 236.241,290.623 236.400,290.408 236.400 C 290.192 236.400,289.031 237.030,287.827 237.800 C 286.623 238.570,285.532 239.200,285.402 239.200 C 285.273 239.200,284.780 239.560,284.308 240.000 C 283.836 240.440,283.213 240.800,282.925 240.800 C 282.636 240.800,282.400 240.980,282.400 241.200 C 282.400 241.420,282.226 241.600,282.012 241.600 C 281.799 241.600,280.373 242.410,278.842 243.400 C 277.312 244.390,275.866 245.200,275.630 245.200 C 275.393 245.200,275.200 245.380,275.200 245.600 C 275.200 245.820,275.028 246.000,274.817 246.000 C 274.606 246.000,272.354 247.350,269.813 249.000 C 267.272 250.650,265.110 252.000,265.010 252.000 C 264.910 252.000,263.293 252.990,261.418 254.200 C 259.542 255.410,257.826 256.400,257.604 256.400 C 257.382 256.400,257.200 256.580,257.200 256.800 C 257.200 257.020,256.930 257.200,256.600 257.200 C 256.270 257.200,256.000 257.336,256.000 257.502 C 256.000 257.669,255.415 258.054,254.700 258.359 C 253.985 258.664,252.847 259.323,252.171 259.823 C 250.572 261.006,247.590 262.773,246.700 263.064 C 246.315 263.190,246.000 263.452,246.000 263.647 C 246.000 263.841,245.730 264.000,245.400 264.000 C 245.070 264.000,244.800 264.180,244.800 264.400 C 244.800 264.620,244.618 264.800,244.396 264.800 C 244.174 264.800,242.458 265.790,240.582 267.000 C 238.707 268.210,236.998 269.200,236.786 269.200 C 236.574 269.200,236.400 269.380,236.400 269.600 C 236.400 269.820,236.122 270.000,235.783 270.000 C 235.444 270.000,234.826 270.315,234.410 270.700 C 233.994 271.085,232.967 271.760,232.127 272.200 C 231.287 272.640,230.251 273.315,229.825 273.700 C 229.398 274.085,228.909 274.400,228.739 274.400 C 228.568 274.400,226.893 275.390,225.018 276.600 C 223.142 277.810,221.426 278.800,221.204 278.800 C 220.982 278.800,220.800 278.980,220.800 279.200 C 220.800 279.420,220.628 279.600,220.418 279.600 C 220.208 279.600,218.232 280.771,216.027 282.202 C 213.821 283.633,211.408 285.146,210.663 285.565 C 209.919 285.983,208.880 286.567,208.355 286.862 C 207.830 287.158,207.310 287.492,207.200 287.604 C 206.681 288.133,203.570 290.000,203.209 290.000 C 202.984 290.000,202.800 290.180,202.800 290.400 C 202.800 290.620,202.626 290.800,202.414 290.800 C 202.201 290.800,200.509 291.790,198.652 293.000 C 196.796 294.210,195.080 295.200,194.839 295.200 C 194.597 295.200,194.400 295.380,194.400 295.600 C 194.400 295.820,194.130 296.000,193.800 296.000 C 193.470 296.000,193.200 296.180,193.200 296.400 C 193.200 296.620,192.855 296.800,192.433 296.800 C 192.012 296.800,191.607 296.956,191.533 297.146 C 191.362 297.591,185.720 301.200,185.196 301.200 C 184.978 301.200,184.800 301.380,184.800 301.600 C 184.800 301.820,184.618 302.000,184.396 302.000 C 184.174 302.000,182.476 302.988,180.623 304.197 C 178.769 305.405,176.791 306.604,176.226 306.861 C 175.662 307.118,175.200 307.480,175.200 307.664 C 175.200 307.849,174.840 308.000,174.400 308.000 C 173.960 308.000,173.600 308.159,173.600 308.354 C 173.600 308.549,173.015 309.004,172.300 309.365 C 170.663 310.192,169.458 310.926,169.200 311.254 C 169.090 311.393,168.350 311.871,167.555 312.316 C 164.524 314.012,164.194 314.206,164.000 314.404 C 163.481 314.933,160.370 316.800,160.009 316.800 C 159.784 316.800,159.600 316.968,159.600 317.173 C 159.600 317.378,159.229 317.664,158.776 317.808 C 157.070 318.349,152.000 324.291,152.000 325.748 C 152.000 326.081,151.839 326.452,151.642 326.574 C 150.397 327.343,150.396 340.463,151.641 341.780 C 151.838 341.989,152.000 342.478,152.000 342.866 C 152.000 348.744,165.871 361.351,177.000 365.588 C 177.440 365.756,178.250 366.085,178.800 366.320 C 179.350 366.555,180.520 366.964,181.400 367.229 C 182.280 367.495,183.480 367.882,184.066 368.090 C 189.989 370.194,196.087 370.847,211.700 371.051 L 224.800 371.221 224.800 365.205 C 224.800 361.896,224.959 358.877,225.153 358.495 C 225.348 358.113,225.743 357.260,226.033 356.600 C 227.149 354.054,231.705 350.221,234.607 349.385 C 236.373 348.877,298.453 348.693,298.955 349.195 C 299.178 349.418,299.667 349.600,300.042 349.600 C 302.680 349.600,307.966 354.582,308.013 357.112 C 308.052 359.212,307.961 359.200,323.550 359.200 C 339.162 359.200,338.678 359.137,341.400 361.513 C 344.296 364.041,344.400 364.764,344.400 382.399 C 344.400 400.362,344.377 400.528,341.498 403.407 C 338.509 406.397,338.488 406.400,322.831 406.400 C 308.357 406.400,308.000 406.441,308.000 408.118 C 308.000 409.588,305.368 412.625,303.239 413.612 C 302.668 413.877,301.887 414.252,301.505 414.447 C 300.417 415.000,235.886 414.901,234.519 414.344 C 231.377 413.063,230.616 412.607,229.048 411.069 C 227.152 409.210,225.600 406.749,225.600 405.601 C 225.600 405.186,225.420 404.736,225.200 404.600 C 224.968 404.457,224.800 402.263,224.800 399.376 L 224.800 394.400 201.500 394.407 C 179.391 394.413,170.013 394.087,164.800 393.130 C 163.590 392.908,161.610 392.637,160.400 392.528 C 159.190 392.419,158.029 392.165,157.820 391.965 C 157.611 391.764,156.677 391.600,155.744 391.600 C 154.811 391.600,153.948 391.439,153.826 391.242 C 153.705 391.045,152.929 390.782,152.103 390.658 C 148.593 390.128,147.580 389.892,147.373 389.556 C 147.252 389.360,146.634 389.200,146.000 389.200 C 145.366 389.200,144.736 389.020,144.600 388.800 C 144.464 388.580,144.098 388.400,143.787 388.400 C 143.284 388.400,139.754 386.939,137.905 385.966 C 137.523 385.765,136.938 385.600,136.605 385.600 C 136.272 385.600,136.000 385.420,136.000 385.200 C 136.000 384.980,135.736 384.800,135.414 384.800 C 134.799 384.800,131.744 383.206,129.938 381.943 C 129.354 381.534,128.679 381.200,128.438 381.200 C 128.197 381.200,128.000 381.020,128.000 380.800 C 128.000 380.580,127.764 380.400,127.475 380.400 C 127.187 380.400,126.564 380.040,126.092 379.600 C 125.620 379.160,125.102 378.800,124.942 378.800 C 124.619 378.800,120.714 375.786,118.206 373.602 C 115.887 371.582,110.047 365.659,108.325 363.580 C 105.214 359.824,104.008 358.182,104.004 357.700 C 104.002 357.425,103.850 357.200,103.668 357.200 C 103.485 357.200,103.080 356.705,102.769 356.100 C 102.457 355.495,101.650 354.190,100.975 353.200 C 99.877 351.589,94.894 341.746,93.888 339.200 C 93.671 338.650,93.316 337.750,93.100 337.200 C 92.884 336.650,92.548 335.887,92.353 335.505 C 92.159 335.123,92.000 334.484,92.000 334.085 C 92.000 333.686,91.849 333.189,91.663 332.980 C 90.995 332.226,88.967 325.062,88.525 321.897 C 88.410 321.071,88.155 320.295,87.958 320.174 C 87.761 320.052,87.600 319.099,87.600 318.056 C 87.600 317.013,87.435 315.989,87.232 315.780 C 86.854 315.388,86.773 314.650,85.924 303.800 C 84.794 289.352,85.295 73.283,86.460 72.563 C 86.647 72.447,86.800 71.654,86.800 70.800 C 86.800 69.946,86.980 69.136,87.200 69.000 C 87.420 68.864,87.600 68.311,87.600 67.771 C 87.600 67.231,87.759 66.477,87.952 66.095 C 88.146 65.713,88.987 63.960,89.821 62.200 C 92.641 56.249,97.015 50.616,101.163 47.593 C 101.913 47.047,102.723 46.418,102.963 46.195 C 104.509 44.760,109.824 42.000,111.041 42.000 C 111.568 42.000,112.000 41.820,112.000 41.600 C 112.000 41.380,112.462 41.200,113.026 41.200 C 113.591 41.200,114.433 40.996,114.898 40.748 C 116.861 39.697,124.501 39.313,129.400 40.019 M120.000 63.600 C 120.000 63.820,119.751 64.000,119.446 64.000 C 115.245 64.000,110.160 71.014,108.425 79.200 C 107.815 82.075,108.086 301.496,108.706 307.000 C 109.167 311.092,110.390 317.164,111.606 321.400 C 111.859 322.280,112.162 323.497,112.279 324.105 C 112.396 324.713,112.651 325.308,112.846 325.429 C 113.041 325.549,113.200 325.999,113.200 326.429 C 113.200 326.859,113.358 327.523,113.551 327.905 C 113.744 328.287,114.129 329.320,114.406 330.200 C 114.683 331.080,115.335 332.689,115.855 333.775 C 116.375 334.861,116.800 335.986,116.800 336.275 C 116.800 336.564,116.980 336.800,117.200 336.800 C 117.420 336.800,117.600 337.052,117.600 337.359 C 117.600 340.237,127.160 352.824,132.206 356.590 C 133.082 357.245,134.213 358.190,134.718 358.690 C 135.223 359.191,135.795 359.600,135.990 359.600 C 136.184 359.600,136.581 359.834,136.871 360.119 C 137.939 361.167,141.200 363.227,141.200 362.853 C 141.200 362.640,141.049 362.407,140.865 362.333 C 139.766 361.896,135.284 353.762,133.627 349.200 C 133.348 348.430,132.971 347.440,132.790 347.000 C 132.440 346.152,132.204 345.143,131.521 341.600 C 130.928 338.518,130.653 322.387,131.184 321.856 C 131.413 321.627,131.600 320.767,131.600 319.944 C 131.600 319.121,131.780 318.336,132.000 318.200 C 132.220 318.064,132.400 317.577,132.400 317.118 C 132.400 316.342,135.015 310.446,135.557 310.000 C 135.691 309.890,136.070 309.325,136.400 308.743 C 137.941 306.029,141.619 302.015,144.600 299.793 C 145.479 299.137,146.548 298.285,146.975 297.900 C 147.402 297.515,147.987 297.200,148.275 297.200 C 148.564 297.200,148.800 297.065,148.800 296.900 C 148.801 296.735,149.746 296.074,150.900 295.432 C 152.055 294.789,153.090 294.159,153.200 294.032 C 153.396 293.805,153.835 293.544,156.755 291.922 C 157.550 291.480,158.470 290.886,158.800 290.600 C 159.605 289.905,162.827 288.022,163.700 287.736 C 164.085 287.610,164.400 287.348,164.400 287.153 C 164.400 286.959,164.670 286.800,165.000 286.800 C 165.330 286.800,165.600 286.620,165.600 286.400 C 165.600 286.180,165.784 286.000,166.010 286.000 C 166.235 286.000,167.310 285.387,168.399 284.638 C 169.488 283.889,170.923 283.035,171.589 282.741 C 172.255 282.446,172.800 282.069,172.800 281.902 C 172.800 281.736,173.070 281.600,173.400 281.600 C 173.730 281.600,174.000 281.420,174.000 281.200 C 174.000 280.980,174.360 280.800,174.800 280.800 C 175.240 280.800,175.600 280.659,175.600 280.486 C 175.600 280.314,176.163 279.819,176.851 279.386 C 177.539 278.954,178.754 278.187,179.551 277.683 C 180.348 277.179,181.315 276.663,181.700 276.536 C 182.085 276.410,182.400 276.148,182.400 275.953 C 182.400 275.759,182.581 275.600,182.803 275.600 C 183.025 275.600,185.003 274.430,187.200 273.000 C 189.397 271.570,191.375 270.400,191.597 270.400 C 191.819 270.400,192.000 270.220,192.000 270.000 C 192.000 269.780,192.360 269.600,192.800 269.600 C 193.240 269.600,193.600 269.448,193.600 269.263 C 193.600 269.078,194.230 268.587,195.000 268.172 C 195.770 267.757,196.400 267.279,196.400 267.109 C 196.400 266.939,196.678 266.800,197.017 266.800 C 197.356 266.800,198.020 266.440,198.492 266.000 C 198.964 265.560,199.587 265.200,199.875 265.200 C 200.164 265.200,200.400 265.020,200.400 264.800 C 200.400 264.580,200.670 264.400,201.000 264.400 C 201.330 264.400,201.600 264.220,201.600 264.000 C 201.600 263.780,201.782 263.600,202.004 263.600 C 202.226 263.600,203.942 262.610,205.818 261.400 C 207.693 260.190,209.402 259.200,209.614 259.200 C 209.826 259.200,210.000 259.020,210.000 258.800 C 210.000 258.580,210.182 258.400,210.404 258.400 C 210.626 258.400,212.291 257.454,214.104 256.298 C 215.917 255.143,217.895 253.942,218.500 253.631 C 219.105 253.320,219.600 252.915,219.600 252.732 C 219.600 252.550,219.777 252.400,219.992 252.400 C 220.208 252.400,221.369 251.770,222.573 251.000 C 223.777 250.230,224.950 249.600,225.181 249.600 C 225.411 249.600,225.600 249.420,225.600 249.200 C 225.600 248.980,225.772 248.800,225.982 248.800 C 226.192 248.800,228.166 247.630,230.370 246.200 C 232.574 244.770,234.562 243.600,234.788 243.600 C 235.015 243.600,235.200 243.420,235.200 243.200 C 235.200 242.980,235.374 242.800,235.586 242.800 C 235.799 242.800,237.491 241.810,239.348 240.600 C 241.204 239.390,242.920 238.400,243.161 238.400 C 243.403 238.400,243.600 238.250,243.600 238.068 C 243.600 237.885,244.091 237.480,244.692 237.168 C 246.157 236.406,252.477 232.520,253.083 232.008 C 253.349 231.784,253.829 231.600,254.150 231.600 C 254.471 231.600,254.793 231.447,254.867 231.261 C 255.067 230.752,262.367 226.191,263.700 225.742 C 264.085 225.613,264.400 225.348,264.400 225.153 C 264.400 224.959,264.608 224.800,264.862 224.800 C 265.116 224.800,265.914 224.350,266.636 223.800 C 267.357 223.250,268.124 222.800,268.340 222.800 C 268.556 222.800,268.793 222.665,268.867 222.500 C 269.034 222.124,271.164 220.825,272.100 220.529 C 272.485 220.407,272.800 220.148,272.800 219.953 C 272.800 219.759,273.070 219.600,273.400 219.600 C 273.730 219.600,274.000 219.420,274.000 219.200 C 274.000 218.980,274.184 218.800,274.409 218.800 C 274.894 218.800,278.142 216.731,278.333 216.300 C 278.407 216.135,278.729 216.000,279.050 216.000 C 279.371 216.000,280.020 215.640,280.492 215.200 C 280.964 214.760,281.587 214.400,281.875 214.400 C 282.164 214.400,282.400 214.220,282.400 214.000 C 282.400 213.780,282.584 213.600,282.809 213.600 C 283.170 213.600,286.281 211.733,286.800 211.204 C 287.025 210.975,288.275 210.249,290.500 209.056 C 291.325 208.614,292.000 208.105,292.000 207.926 C 292.000 207.747,292.189 207.600,292.419 207.600 C 292.650 207.600,293.823 206.970,295.027 206.200 C 296.231 205.430,297.392 204.800,297.608 204.800 C 297.823 204.800,298.000 204.650,298.000 204.468 C 298.000 204.285,298.495 203.881,299.100 203.570 C 306.226 199.911,312.800 193.941,312.800 191.129 C 312.800 190.754,312.980 190.336,313.200 190.200 C 313.691 189.897,313.738 181.867,313.255 180.895 C 313.066 180.513,312.398 179.151,311.772 177.869 C 310.549 175.363,308.422 173.240,305.270 171.378 C 304.572 170.965,304.000 170.486,304.000 170.314 C 304.000 170.141,303.640 170.000,303.200 170.000 C 302.760 170.000,302.400 169.841,302.400 169.647 C 302.400 169.452,302.085 169.190,301.700 169.064 C 300.857 168.788,298.354 167.321,294.688 164.952 C 293.196 163.988,291.801 163.200,291.588 163.200 C 291.374 163.200,291.200 163.020,291.200 162.800 C 291.200 162.580,291.018 162.400,290.796 162.400 C 290.574 162.400,288.874 161.410,287.017 160.200 C 285.161 158.990,283.453 158.000,283.221 158.000 C 282.989 158.000,282.800 157.820,282.800 157.600 C 282.800 157.380,282.530 157.200,282.200 157.200 C 281.870 157.200,281.600 157.020,281.600 156.800 C 281.600 156.580,281.407 156.400,281.170 156.400 C 280.934 156.400,279.449 155.563,277.870 154.540 C 276.292 153.517,274.415 152.347,273.700 151.940 C 272.985 151.533,271.739 150.825,270.930 150.368 C 270.122 149.910,268.498 148.920,267.322 148.168 C 266.146 147.415,265.008 146.800,264.792 146.800 C 264.577 146.800,264.400 146.620,264.400 146.400 C 264.400 146.180,264.222 146.000,264.004 146.000 C 263.480 146.000,257.838 142.391,257.667 141.946 C 257.593 141.756,257.188 141.600,256.767 141.600 C 256.345 141.600,256.000 141.464,256.000 141.298 C 256.000 141.131,255.415 140.741,254.700 140.430 C 253.985 140.119,253.310 139.751,253.200 139.613 C 253.090 139.475,252.100 138.846,251.000 138.215 C 249.900 137.585,248.910 136.964,248.800 136.835 C 248.690 136.706,248.170 136.358,247.645 136.062 C 247.120 135.767,246.130 135.210,245.445 134.825 C 244.760 134.440,242.893 133.287,241.296 132.262 C 239.699 131.238,238.214 130.400,237.996 130.400 C 237.778 130.400,237.600 130.220,237.600 130.000 C 237.600 129.780,237.418 129.600,237.196 129.600 C 236.974 129.600,235.258 128.610,233.382 127.400 C 231.507 126.190,229.798 125.200,229.586 125.200 C 229.374 125.200,229.200 125.020,229.200 124.800 C 229.200 124.580,229.043 124.400,228.851 124.400 C 228.503 124.400,222.381 120.844,222.000 120.421 C 221.890 120.299,221.305 119.944,220.700 119.632 C 220.095 119.320,219.600 118.915,219.600 118.732 C 219.600 118.550,219.240 118.400,218.800 118.400 C 218.360 118.400,218.000 118.220,218.000 118.000 C 218.000 117.780,217.818 117.600,217.596 117.600 C 217.374 117.600,215.709 116.654,213.896 115.498 C 212.083 114.343,210.105 113.142,209.500 112.831 C 208.895 112.520,208.400 112.115,208.400 111.932 C 208.400 111.750,208.055 111.600,207.633 111.600 C 207.212 111.600,206.807 111.465,206.733 111.300 C 206.542 110.869,203.294 108.800,202.809 108.800 C 202.584 108.800,202.400 108.620,202.400 108.400 C 202.400 108.180,202.130 108.000,201.800 108.000 C 201.470 108.000,201.200 107.841,201.200 107.647 C 201.200 107.452,200.885 107.193,200.500 107.071 C 199.807 106.852,197.586 105.590,197.200 105.196 C 196.681 104.667,193.570 102.800,193.209 102.800 C 192.984 102.800,192.800 102.641,192.800 102.447 C 192.800 102.252,192.485 101.990,192.100 101.864 C 191.157 101.556,188.151 99.756,186.591 98.566 C 185.894 98.035,185.116 97.600,184.862 97.600 C 184.608 97.600,184.400 97.464,184.400 97.298 C 184.400 97.131,183.815 96.736,183.100 96.420 C 182.385 96.103,181.620 95.696,181.400 95.514 C 180.510 94.780,173.889 90.800,173.557 90.800 C 173.361 90.800,173.200 90.620,173.200 90.400 C 173.200 90.180,173.022 90.000,172.804 90.000 C 172.586 90.000,171.145 89.190,169.600 88.200 C 168.055 87.210,166.614 86.400,166.396 86.400 C 166.178 86.400,166.000 86.241,166.000 86.047 C 166.000 85.852,165.685 85.587,165.300 85.458 C 164.431 85.165,162.776 84.190,160.280 82.500 C 159.224 81.785,158.189 81.200,157.980 81.200 C 157.771 81.200,157.600 81.020,157.600 80.800 C 157.600 80.580,157.330 80.400,157.000 80.400 C 156.670 80.400,156.400 80.264,156.400 80.098 C 156.400 79.931,155.815 79.537,155.100 79.222 C 153.468 78.503,148.246 75.164,148.067 74.726 C 147.993 74.547,147.588 74.400,147.167 74.400 C 146.745 74.400,146.400 74.250,146.400 74.068 C 146.400 73.885,145.905 73.485,145.300 73.180 C 144.695 72.874,142.995 71.854,141.521 70.912 C 140.048 69.970,138.653 69.200,138.421 69.200 C 138.190 69.200,138.000 69.020,138.000 68.800 C 138.000 68.580,137.730 68.400,137.400 68.400 C 137.070 68.400,136.800 68.220,136.800 68.000 C 136.800 67.780,136.625 67.600,136.412 67.600 C 136.198 67.600,134.653 66.790,132.978 65.800 C 131.304 64.810,129.689 64.000,129.391 64.000 C 129.092 64.000,128.736 63.820,128.600 63.600 C 128.461 63.375,126.529 63.200,124.176 63.200 C 121.659 63.200,120.000 63.359,120.000 63.600 M308.801 382.700 L 308.802 395.400 312.401 395.518 L 316.000 395.635 316.000 382.818 L 316.000 370.000 312.400 370.000 L 308.800 370.000 308.801 382.700 M324.400 374.751 L 324.400 379.503 328.800 379.468 L 333.200 379.434 333.200 374.717 L 333.200 370.000 328.800 370.000 L 324.400 370.000 324.400 374.751 M324.400 390.900 L 324.400 395.400 328.799 395.400 L 333.199 395.400 333.200 390.900 L 333.200 386.400 328.800 386.400 L 324.400 386.400 324.400 390.900 " stroke="none" fill="#fbfbfb" fill-rule="evenodd"></path><path id="path2" d="M122.505 40.287 C 123.114 40.379,124.014 40.377,124.505 40.282 C 124.997 40.187,124.500 40.111,123.400 40.114 C 122.300 40.117,121.897 40.195,122.505 40.287 M86.109 76.800 C 86.109 77.790,86.187 78.195,86.282 77.700 C 86.378 77.205,86.378 76.395,86.282 75.900 C 86.187 75.405,86.109 75.810,86.109 76.800 M107.797 185.000 C 107.797 242.640,107.843 266.161,107.900 237.268 C 107.957 208.375,107.957 161.215,107.900 132.468 C 107.843 103.721,107.797 127.360,107.797 185.000 M314.128 185.600 C 314.128 187.030,314.201 187.615,314.289 186.900 C 314.378 186.185,314.378 185.015,314.289 184.300 C 314.201 183.585,314.128 184.170,314.128 185.600 M336.109 185.200 C 336.109 186.190,336.187 186.595,336.282 186.100 C 336.378 185.605,336.378 184.795,336.282 184.300 C 336.187 183.805,336.109 184.210,336.109 185.200 M323.387 214.100 L 321.000 216.600 323.500 214.213 C 324.875 212.899,326.000 211.774,326.000 211.713 C 326.000 211.417,325.605 211.778,323.387 214.100 M107.757 296.800 C 107.757 299.770,107.820 300.985,107.897 299.500 C 107.974 298.015,107.974 295.585,107.897 294.100 C 107.820 292.615,107.757 293.830,107.757 296.800 M86.146 301.000 C 86.147 303.200,86.214 304.049,86.295 302.887 C 86.376 301.724,86.376 299.924,86.293 298.887 C 86.211 297.849,86.145 298.800,86.146 301.000 M86.901 311.400 C 86.905 312.280,86.987 312.593,87.083 312.095 C 87.179 311.598,87.175 310.878,87.075 310.495 C 86.975 310.113,86.896 310.520,86.901 311.400 M155.178 319.900 L 153.800 321.400 155.300 320.022 C 156.696 318.738,156.984 318.400,156.678 318.400 C 156.612 318.400,155.937 319.075,155.178 319.900 M130.901 325.800 C 130.905 326.680,130.987 326.993,131.083 326.495 C 131.179 325.998,131.175 325.278,131.075 324.895 C 130.975 324.513,130.896 324.920,130.901 325.800 M130.924 334.600 C 130.926 335.920,131.001 336.412,131.090 335.693 C 131.179 334.974,131.177 333.894,131.086 333.293 C 130.995 332.692,130.922 333.280,130.924 334.600 M251.900 349.500 C 260.095 349.560,273.505 349.560,281.700 349.500 C 289.895 349.439,283.190 349.390,266.800 349.390 C 250.410 349.390,243.705 349.439,251.900 349.500 M228.575 353.700 L 227.400 355.000 228.700 353.825 C 229.415 353.179,230.000 352.594,230.000 352.525 C 230.000 352.216,229.670 352.488,228.575 353.700 M224.948 366.000 C 224.948 368.310,225.014 369.255,225.095 368.100 C 225.176 366.945,225.176 365.055,225.095 363.900 C 225.014 362.745,224.948 363.690,224.948 366.000 M309.800 369.454 C 312.628 369.750,316.312 369.777,316.139 369.500 C 316.037 369.335,314.298 369.229,312.276 369.264 C 310.254 369.299,309.140 369.385,309.800 369.454 M326.713 369.495 C 327.876 369.576,329.676 369.576,330.713 369.493 C 331.751 369.411,330.800 369.345,328.600 369.346 C 326.400 369.347,325.551 369.414,326.713 369.495 M192.500 370.676 C 192.885 370.776,193.515 370.776,193.900 370.676 C 194.285 370.575,193.970 370.493,193.200 370.493 C 192.430 370.493,192.115 370.575,192.500 370.676 M333.754 375.200 C 333.754 377.950,333.818 379.075,333.896 377.700 C 333.974 376.325,333.974 374.075,333.896 372.700 C 333.818 371.325,333.754 372.450,333.754 375.200 M200.316 371.497 C 201.699 371.575,203.859 371.574,205.116 371.495 C 206.372 371.416,205.240 371.352,202.600 371.353 C 199.960 371.353,198.932 371.418,200.316 371.497 M308.109 372.800 C 308.109 373.790,308.187 374.195,308.282 373.700 C 308.378 373.205,308.378 372.395,308.282 371.900 C 308.187 371.405,308.109 371.810,308.109 372.800 M323.734 375.200 C 323.734 376.850,323.805 377.525,323.891 376.700 C 323.978 375.875,323.978 374.525,323.891 373.700 C 323.805 372.875,323.734 373.550,323.734 375.200 M308.114 377.800 C 308.117 378.900,308.195 379.303,308.287 378.695 C 308.379 378.086,308.377 377.186,308.282 376.695 C 308.187 376.203,308.111 376.700,308.114 377.800 M308.148 384.000 C 308.148 386.310,308.214 387.255,308.295 386.100 C 308.376 384.945,308.376 383.055,308.295 381.900 C 308.214 380.745,308.148 381.690,308.148 384.000 M333.751 391.200 C 333.751 393.730,333.816 394.765,333.896 393.500 C 333.975 392.235,333.975 390.165,333.896 388.900 C 333.816 387.635,333.751 388.670,333.751 391.200 M173.905 393.483 C 174.402 393.579,175.122 393.575,175.505 393.475 C 175.887 393.375,175.480 393.296,174.600 393.301 C 173.720 393.305,173.407 393.387,173.905 393.483 M202.586 393.898 L 224.771 394.007 224.908 397.804 L 225.046 401.602 225.023 397.701 L 225.000 393.800 202.700 393.795 L 180.400 393.790 202.586 393.898 M323.949 395.700 C 324.251 396.085,324.881 396.379,325.349 396.354 C 326.157 396.310,326.160 396.297,325.400 396.111 C 324.960 396.002,324.330 395.708,324.000 395.457 C 323.478 395.060,323.472 395.091,323.949 395.700 M312.400 396.000 L 308.600 396.247 312.276 396.323 C 314.383 396.367,316.058 396.229,316.200 396.000 C 316.336 395.780,316.392 395.634,316.324 395.677 C 316.256 395.719,314.490 395.864,312.400 396.000 M328.711 396.293 C 329.651 396.378,331.091 396.377,331.911 396.291 C 332.730 396.205,331.960 396.136,330.200 396.137 C 328.440 396.139,327.770 396.209,328.711 396.293 M317.500 405.899 C 321.075 405.966,326.925 405.966,330.500 405.899 C 334.075 405.833,331.150 405.779,324.000 405.779 C 316.850 405.779,313.925 405.833,317.500 405.899 M237.300 414.291 C 238.125 414.378,239.475 414.378,240.300 414.291 C 241.125 414.205,240.450 414.134,238.800 414.134 C 237.150 414.134,236.475 414.205,237.300 414.291 M249.700 414.291 C 250.525 414.378,251.875 414.378,252.700 414.291 C 253.525 414.205,252.850 414.134,251.200 414.134 C 249.550 414.134,248.875 414.205,249.700 414.291 M258.707 414.290 C 259.426 414.379,260.506 414.377,261.107 414.286 C 261.708 414.195,261.120 414.122,259.800 414.124 C 258.480 414.126,257.988 414.201,258.707 414.290 " stroke="none" fill="#a994de" fill-rule="evenodd"></path><path id="path3" d="M118.707 40.690 C 119.426 40.779,120.506 40.777,121.107 40.686 C 121.708 40.595,121.120 40.522,119.800 40.524 C 118.480 40.526,117.988 40.601,118.707 40.690 M125.900 40.689 C 126.615 40.778,127.785 40.778,128.500 40.689 C 129.215 40.601,128.630 40.528,127.200 40.528 C 125.770 40.528,125.185 40.601,125.900 40.689 M115.000 41.200 C 113.893 41.482,113.877 41.509,114.800 41.547 C 115.350 41.569,116.070 41.413,116.400 41.200 C 117.081 40.760,116.729 40.760,115.000 41.200 M107.900 43.829 C 106.349 44.670,106.525 44.961,108.100 44.159 C 109.608 43.393,109.875 43.194,109.367 43.216 C 109.165 43.225,108.505 43.501,107.900 43.829 M104.900 45.596 C 104.185 46.032,103.600 46.475,103.600 46.581 C 103.600 46.686,104.230 46.401,105.000 45.947 C 105.770 45.493,106.400 45.049,106.400 44.960 C 106.400 44.705,106.274 44.758,104.900 45.596 M142.400 45.220 C 143.787 46.161,144.578 46.435,143.600 45.636 C 143.050 45.186,142.420 44.817,142.200 44.815 C 141.980 44.813,142.070 44.996,142.400 45.220 M99.775 49.700 L 98.600 51.000 99.900 49.825 C 100.615 49.179,101.200 48.594,101.200 48.525 C 101.200 48.216,100.870 48.488,99.775 49.700 M94.000 56.000 C 93.530 56.660,93.236 57.200,93.346 57.200 C 93.456 57.200,93.930 56.660,94.400 56.000 C 94.870 55.340,95.164 54.800,95.054 54.800 C 94.944 54.800,94.470 55.340,94.000 56.000 M163.000 57.807 C 163.440 58.166,164.160 58.635,164.600 58.851 L 165.400 59.244 164.600 58.593 C 164.160 58.234,163.440 57.765,163.000 57.549 L 162.200 57.156 163.000 57.807 M168.800 61.335 C 168.800 61.437,169.401 61.875,170.135 62.308 C 170.869 62.741,171.994 63.411,172.635 63.795 L 173.800 64.495 172.800 63.667 C 171.657 62.721,168.800 61.056,168.800 61.335 M121.340 62.306 C 121.087 62.468,122.476 62.600,124.426 62.600 C 126.377 62.600,127.664 62.478,127.286 62.328 C 126.352 61.958,121.910 61.942,121.340 62.306 M131.600 64.179 C 131.600 64.289,132.140 64.659,132.800 65.000 C 133.460 65.341,134.000 65.531,134.000 65.421 C 134.000 65.311,133.460 64.941,132.800 64.600 C 132.140 64.259,131.600 64.069,131.600 64.179 M113.381 66.900 L 111.800 68.600 113.500 67.019 C 115.081 65.548,115.384 65.200,115.081 65.200 C 115.016 65.200,114.251 65.965,113.381 66.900 M134.400 65.779 C 134.400 65.889,134.940 66.259,135.600 66.600 C 136.260 66.941,136.800 67.131,136.800 67.021 C 136.800 66.911,136.260 66.541,135.600 66.200 C 134.940 65.859,134.400 65.669,134.400 65.779 M177.200 66.530 C 177.200 66.740,181.191 69.201,181.527 69.197 C 181.858 69.194,179.821 67.788,178.300 66.971 C 177.695 66.646,177.200 66.447,177.200 66.530 M140.211 69.339 C 142.119 70.641,143.200 71.278,143.200 71.099 C 143.200 70.845,140.104 68.800,139.720 68.800 C 139.556 68.800,139.777 69.042,140.211 69.339 M109.685 72.013 C 109.418 72.440,109.201 73.017,109.202 73.295 C 109.204 73.573,109.477 73.278,109.810 72.640 C 110.503 71.311,110.411 70.850,109.685 72.013 M86.622 73.822 C 86.472 74.625,86.428 75.362,86.526 75.460 C 86.624 75.557,86.827 74.981,86.978 74.178 C 87.128 73.375,87.172 72.638,87.074 72.540 C 86.976 72.443,86.773 73.019,86.622 73.822 M187.200 72.820 C 188.587 73.761,189.378 74.035,188.400 73.236 C 187.850 72.786,187.220 72.417,187.000 72.415 C 186.780 72.413,186.870 72.596,187.200 72.820 M148.611 74.539 C 150.519 75.841,151.600 76.478,151.600 76.299 C 151.600 76.045,148.504 74.000,148.120 74.000 C 147.956 74.000,148.177 74.242,148.611 74.539 M193.400 76.596 C 194.294 77.339,196.828 78.709,196.200 78.110 C 195.980 77.900,195.080 77.324,194.200 76.830 C 193.320 76.335,192.960 76.230,193.400 76.596 M107.849 77.415 C 107.712 77.773,107.623 78.636,107.650 79.333 C 107.692 80.387,107.750 80.298,107.999 78.800 C 108.317 76.886,108.259 76.348,107.849 77.415 M86.197 187.400 C 86.197 247.020,86.243 271.350,86.300 241.468 C 86.357 211.585,86.357 162.805,86.300 133.068 C 86.243 103.330,86.197 127.780,86.197 187.400 M200.600 80.996 C 201.494 81.739,204.028 83.109,203.400 82.510 C 203.180 82.300,202.280 81.724,201.400 81.230 C 200.520 80.735,200.160 80.630,200.600 80.996 M161.800 82.607 C 162.240 82.966,162.960 83.435,163.400 83.651 L 164.200 84.044 163.400 83.393 C 162.960 83.034,162.240 82.565,161.800 82.349 L 161.000 81.956 161.800 82.607 M208.000 85.564 C 208.550 86.014,209.180 86.383,209.400 86.385 C 209.828 86.388,209.105 85.834,207.800 85.160 C 207.269 84.885,207.336 85.021,208.000 85.564 M170.086 87.800 C 170.895 88.350,171.699 88.800,171.872 88.800 C 172.044 88.800,171.523 88.350,170.714 87.800 C 169.905 87.250,169.101 86.800,168.928 86.800 C 168.756 86.800,169.277 87.250,170.086 87.800 M214.400 89.301 C 214.400 89.555,217.496 91.600,217.880 91.600 C 218.044 91.600,217.823 91.358,217.389 91.061 C 215.481 89.759,214.400 89.122,214.400 89.301 M176.400 91.533 C 177.543 92.479,180.400 94.144,180.400 93.865 C 180.400 93.763,179.799 93.325,179.065 92.892 C 178.331 92.459,177.206 91.789,176.565 91.405 L 175.400 90.705 176.400 91.533 M227.400 97.407 C 227.840 97.766,228.560 98.235,229.000 98.451 L 229.800 98.844 229.000 98.193 C 228.560 97.834,227.840 97.365,227.400 97.149 L 226.600 96.756 227.400 97.407 M234.800 101.964 C 235.350 102.414,235.980 102.783,236.200 102.785 C 236.628 102.788,235.905 102.234,234.600 101.560 C 234.069 101.285,234.136 101.421,234.800 101.964 M197.000 104.207 C 197.440 104.566,198.160 105.035,198.600 105.251 L 199.400 105.644 198.600 104.993 C 198.160 104.634,197.440 104.165,197.000 103.949 L 196.200 103.556 197.000 104.207 M241.800 106.207 C 242.240 106.566,242.960 107.035,243.400 107.251 L 244.200 107.644 243.400 106.993 C 242.960 106.634,242.240 106.165,241.800 105.949 L 241.000 105.556 241.800 106.207 M204.800 108.901 C 204.800 109.155,207.896 111.200,208.280 111.200 C 208.444 111.200,208.223 110.958,207.789 110.661 C 205.881 109.359,204.800 108.722,204.800 108.901 M247.200 109.564 C 247.750 110.014,248.380 110.383,248.600 110.385 C 249.028 110.388,248.305 109.834,247.000 109.160 C 246.469 108.885,246.536 109.021,247.200 109.564 M252.400 112.501 C 252.400 112.755,255.496 114.800,255.880 114.800 C 256.044 114.800,255.823 114.558,255.389 114.261 C 253.481 112.959,252.400 112.322,252.400 112.501 M213.400 114.422 C 214.882 115.430,216.800 116.473,216.800 116.270 C 216.800 116.060,212.809 113.599,212.473 113.603 C 212.323 113.604,212.740 113.973,213.400 114.422 M260.400 117.620 C 261.787 118.561,262.578 118.835,261.600 118.036 C 261.050 117.586,260.420 117.217,260.200 117.215 C 259.980 117.213,260.070 117.396,260.400 117.620 M219.600 118.179 C 219.600 118.289,220.140 118.659,220.800 119.000 C 221.460 119.341,222.000 119.531,222.000 119.421 C 222.000 119.311,221.460 118.941,220.800 118.600 C 220.140 118.259,219.600 118.069,219.600 118.179 M266.200 121.090 C 266.420 121.300,267.320 121.876,268.200 122.370 C 269.080 122.865,269.440 122.970,269.000 122.604 C 268.106 121.861,265.572 120.491,266.200 121.090 M227.000 122.690 C 227.220 122.900,228.120 123.476,229.000 123.970 C 229.880 124.465,230.240 124.570,229.800 124.204 C 228.906 123.461,226.372 122.091,227.000 122.690 M232.800 126.101 C 232.800 126.355,235.896 128.400,236.280 128.400 C 236.444 128.400,236.223 128.158,235.789 127.861 C 233.881 126.559,232.800 125.922,232.800 126.101 M279.200 128.901 C 279.200 129.155,282.296 131.200,282.680 131.200 C 282.844 131.200,282.623 130.958,282.189 130.661 C 280.281 129.359,279.200 128.722,279.200 128.901 M241.800 131.807 C 242.240 132.166,242.960 132.635,243.400 132.851 L 244.200 133.244 243.400 132.593 C 242.960 132.234,242.240 131.765,241.800 131.549 L 241.000 131.156 241.800 131.807 M292.800 137.335 C 292.800 137.437,293.401 137.875,294.135 138.308 C 294.869 138.741,295.994 139.411,296.635 139.795 L 297.800 140.495 296.800 139.667 C 295.657 138.721,292.800 137.056,292.800 137.335 M300.600 142.196 C 301.494 142.939,304.028 144.309,303.400 143.710 C 303.180 143.500,302.280 142.924,301.400 142.430 C 300.520 141.935,300.160 141.830,300.600 142.196 M308.000 146.764 C 308.550 147.214,309.180 147.583,309.400 147.585 C 309.828 147.588,309.105 147.034,307.800 146.360 C 307.269 146.085,307.336 146.221,308.000 146.764 M312.600 149.490 C 312.820 149.700,313.720 150.276,314.600 150.770 C 315.480 151.265,315.840 151.370,315.400 151.004 C 314.506 150.261,311.972 148.891,312.600 149.490 M317.200 152.124 C 317.200 152.217,317.965 152.798,318.900 153.415 C 319.835 154.032,320.389 154.280,320.131 153.968 C 319.634 153.367,317.200 151.836,317.200 152.124 M277.600 153.620 C 278.987 154.561,279.778 154.835,278.800 154.036 C 278.250 153.586,277.620 153.217,277.400 153.215 C 277.180 153.213,277.270 153.396,277.600 153.620 M325.789 159.300 C 327.083 160.785,328.217 162.000,328.308 162.000 C 328.573 162.000,325.383 158.281,324.362 157.400 C 323.853 156.960,324.495 157.815,325.789 159.300 M286.886 159.400 C 287.695 159.950,288.499 160.400,288.672 160.400 C 288.844 160.400,288.323 159.950,287.514 159.400 C 286.705 158.850,285.901 158.400,285.728 158.400 C 285.556 158.400,286.077 158.850,286.886 159.400 M295.286 164.600 C 296.095 165.150,296.899 165.600,297.072 165.600 C 297.244 165.600,296.723 165.150,295.914 164.600 C 295.105 164.050,294.301 163.600,294.128 163.600 C 293.956 163.600,294.477 164.050,295.286 164.600 M301.600 168.420 C 302.987 169.361,303.778 169.635,302.800 168.836 C 302.250 168.386,301.620 168.017,301.400 168.015 C 301.180 168.013,301.270 168.196,301.600 168.420 M335.293 180.000 C 335.293 180.770,335.375 181.085,335.476 180.700 C 335.576 180.315,335.576 179.685,335.476 179.300 C 335.375 178.915,335.293 179.230,335.293 180.000 M335.744 185.200 C 335.744 187.290,335.812 188.145,335.894 187.100 C 335.976 186.055,335.976 184.345,335.894 183.300 C 335.812 182.255,335.744 183.110,335.744 185.200 M314.524 185.400 C 314.526 186.720,314.601 187.212,314.690 186.493 C 314.779 185.774,314.777 184.694,314.686 184.093 C 314.595 183.492,314.522 184.080,314.524 185.400 M334.629 193.829 C 334.481 194.415,334.438 194.972,334.532 195.066 C 334.627 195.160,334.824 194.758,334.971 194.171 C 335.119 193.585,335.162 193.028,335.068 192.934 C 334.973 192.840,334.776 193.242,334.629 193.829 M305.100 200.629 C 303.605 201.440,303.696 201.778,305.200 201.000 C 305.860 200.659,306.400 200.294,306.400 200.190 C 306.400 199.932,306.357 199.947,305.100 200.629 M296.081 206.172 C 294.223 207.485,293.962 207.861,295.531 206.962 C 296.263 206.543,297.050 205.975,297.280 205.700 C 297.871 204.993,297.593 205.102,296.081 206.172 M289.500 210.229 C 288.005 211.040,288.096 211.378,289.600 210.600 C 290.260 210.259,290.800 209.894,290.800 209.790 C 290.800 209.532,290.757 209.547,289.500 210.229 M313.657 220.808 C 311.487 222.234,311.021 222.701,312.600 221.870 C 314.317 220.966,316.271 219.600,315.800 219.634 C 315.580 219.649,314.616 220.178,313.657 220.808 M271.500 221.429 C 270.005 222.240,270.096 222.578,271.600 221.800 C 272.260 221.459,272.800 221.094,272.800 220.990 C 272.800 220.732,272.757 220.747,271.500 221.429 M265.400 225.200 C 264.740 225.637,264.380 225.992,264.600 225.988 C 265.001 225.982,267.176 224.423,266.800 224.412 C 266.690 224.408,266.060 224.763,265.400 225.200 M257.211 230.220 C 255.384 231.509,256.013 231.492,257.914 230.200 C 258.723 229.650,259.209 229.209,258.993 229.220 C 258.777 229.230,257.975 229.680,257.211 230.220 M298.800 230.036 C 298.136 230.579,298.069 230.715,298.600 230.440 C 299.905 229.766,300.628 229.212,300.200 229.215 C 299.980 229.217,299.350 229.586,298.800 230.036 M292.696 233.750 C 290.775 234.931,290.238 235.489,291.800 234.681 C 293.054 234.033,294.745 232.826,294.400 232.825 C 294.290 232.825,293.523 233.241,292.696 233.750 M249.581 234.990 C 248.382 235.754,247.523 236.384,247.673 236.390 C 247.993 236.402,252.000 233.948,252.000 233.740 C 252.000 233.478,251.763 233.600,249.581 234.990 M286.011 237.820 C 284.184 239.109,284.813 239.092,286.714 237.800 C 287.523 237.250,288.009 236.809,287.793 236.820 C 287.577 236.830,286.775 237.280,286.011 237.820 M241.007 240.222 C 239.911 240.980,239.154 241.600,239.323 241.600 C 239.493 241.600,240.567 240.970,241.710 240.200 C 242.854 239.430,243.612 238.810,243.395 238.822 C 243.178 238.834,242.103 239.464,241.007 240.222 M276.800 243.600 C 275.810 244.258,275.139 244.797,275.309 244.798 C 275.657 244.800,278.800 242.774,278.800 242.547 C 278.800 242.292,278.642 242.375,276.800 243.600 M233.300 245.026 C 232.365 245.587,231.600 246.140,231.600 246.255 C 231.600 246.471,234.299 244.938,234.980 244.336 C 235.667 243.728,235.027 243.991,233.300 245.026 M267.800 249.200 C 267.140 249.637,266.780 249.992,267.000 249.988 C 267.401 249.982,269.576 248.423,269.200 248.412 C 269.090 248.408,268.460 248.763,267.800 249.200 M223.181 251.390 C 221.982 252.154,221.123 252.784,221.273 252.790 C 221.593 252.802,225.600 250.348,225.600 250.140 C 225.600 249.878,225.363 250.000,223.181 251.390 M259.611 254.220 C 257.784 255.509,258.413 255.492,260.314 254.200 C 261.123 253.650,261.609 253.209,261.393 253.220 C 261.177 253.230,260.375 253.680,259.611 254.220 M214.400 256.836 C 213.736 257.379,213.669 257.515,214.200 257.240 C 215.505 256.566,216.228 256.012,215.800 256.015 C 215.580 256.017,214.950 256.386,214.400 256.836 M205.827 262.037 C 203.065 263.871,202.511 264.359,204.200 263.471 C 205.949 262.551,209.067 260.398,208.600 260.433 C 208.380 260.449,207.132 261.171,205.827 262.037 M196.400 268.036 C 195.736 268.579,195.669 268.715,196.200 268.440 C 197.505 267.766,198.228 267.212,197.800 267.215 C 197.580 267.217,196.950 267.586,196.400 268.036 M230.800 272.000 C 229.810 272.658,229.139 273.197,229.309 273.198 C 229.657 273.200,232.800 271.174,232.800 270.947 C 232.800 270.692,232.642 270.775,230.800 272.000 M189.200 272.436 C 188.536 272.979,188.469 273.115,189.000 272.840 C 190.305 272.166,191.028 271.612,190.600 271.615 C 190.380 271.617,189.750 271.986,189.200 272.436 M223.600 276.436 C 222.936 276.979,222.869 277.115,223.400 276.840 C 224.705 276.166,225.428 275.612,225.000 275.615 C 224.780 275.617,224.150 275.986,223.600 276.436 M180.500 277.826 C 179.565 278.387,178.800 278.940,178.800 279.055 C 178.800 279.271,181.499 277.738,182.180 277.136 C 182.867 276.528,182.227 276.791,180.500 277.826 M214.000 282.400 C 213.010 283.058,212.339 283.597,212.509 283.598 C 212.857 283.600,216.000 281.574,216.000 281.347 C 216.000 281.092,215.842 281.175,214.000 282.400 M171.500 283.429 C 170.005 284.240,170.096 284.578,171.600 283.800 C 172.260 283.459,172.800 283.094,172.800 282.990 C 172.800 282.732,172.757 282.747,171.500 283.429 M205.600 287.600 C 204.610 288.258,203.939 288.797,204.109 288.798 C 204.457 288.800,207.600 286.774,207.600 286.547 C 207.600 286.292,207.442 286.375,205.600 287.600 M107.348 292.400 C 107.348 294.710,107.414 295.655,107.495 294.500 C 107.576 293.345,107.576 291.455,107.495 290.300 C 107.414 289.145,107.348 290.090,107.348 292.400 M197.407 292.622 C 196.311 293.380,195.554 294.000,195.723 294.000 C 195.893 294.000,196.967 293.370,198.110 292.600 C 199.254 291.830,200.012 291.210,199.795 291.222 C 199.578 291.234,198.503 291.864,197.407 292.622 M148.895 297.411 C 147.743 298.186,146.800 298.908,146.800 299.015 C 146.800 299.121,147.790 298.551,149.000 297.747 C 150.922 296.471,151.487 296.000,151.095 296.000 C 151.037 296.000,150.047 296.635,148.895 297.411 M189.087 297.831 C 187.829 298.618,186.800 299.358,186.800 299.477 C 186.800 299.595,187.279 299.378,187.865 298.994 C 188.451 298.610,189.531 297.941,190.265 297.508 C 191.416 296.829,191.890 296.400,191.487 296.400 C 191.426 296.400,190.346 297.044,189.087 297.831 M143.775 301.300 L 142.600 302.600 143.900 301.425 C 145.112 300.330,145.384 300.000,145.075 300.000 C 145.006 300.000,144.421 300.585,143.775 301.300 M107.720 304.800 C 107.720 306.010,107.795 306.505,107.887 305.900 C 107.978 305.295,107.978 304.305,107.887 303.700 C 107.795 303.095,107.720 303.590,107.720 304.800 M179.700 303.646 C 178.337 304.519,177.895 305.106,179.100 304.443 C 180.018 303.939,181.456 302.827,181.200 302.819 C 181.090 302.816,180.415 303.188,179.700 303.646 M86.493 305.200 C 86.493 305.970,86.575 306.285,86.676 305.900 C 86.776 305.515,86.776 304.885,86.676 304.500 C 86.575 304.115,86.493 304.430,86.493 305.200 M86.901 308.200 C 86.905 309.080,86.987 309.393,87.083 308.895 C 87.179 308.398,87.175 307.678,87.075 307.295 C 86.975 306.913,86.896 307.320,86.901 308.200 M170.800 309.200 C 169.810 309.858,169.139 310.397,169.309 310.398 C 169.657 310.400,172.800 308.374,172.800 308.147 C 172.800 307.892,172.642 307.975,170.800 309.200 M108.509 311.200 C 108.509 312.190,108.587 312.595,108.682 312.100 C 108.778 311.605,108.778 310.795,108.682 310.300 C 108.587 309.805,108.509 310.210,108.509 311.200 M87.268 313.000 C 87.262 313.440,87.411 314.160,87.600 314.600 C 88.038 315.619,88.038 314.568,87.600 313.200 C 87.343 312.396,87.277 312.357,87.268 313.000 M163.281 313.772 C 161.525 315.014,161.097 315.545,162.600 314.618 C 164.678 313.335,165.391 312.799,164.989 312.820 C 164.775 312.830,164.007 313.259,163.281 313.772 M88.056 317.600 C 88.056 317.930,88.211 318.560,88.400 319.000 C 88.617 319.504,88.744 319.578,88.744 319.200 C 88.744 318.870,88.589 318.240,88.400 317.800 C 88.183 317.296,88.056 317.222,88.056 317.600 M109.858 318.400 C 110.175 320.125,110.402 320.451,110.394 319.167 C 110.391 318.635,110.211 317.930,109.994 317.600 C 109.718 317.178,109.677 317.415,109.858 318.400 M155.178 319.500 L 153.800 321.000 155.300 319.622 C 156.696 318.338,156.984 318.000,156.678 318.000 C 156.612 318.000,155.937 318.675,155.178 319.500 M131.450 323.250 C 131.117 324.917,131.440 325.240,131.800 323.600 C 131.952 322.909,131.993 322.259,131.891 322.158 C 131.789 322.056,131.591 322.547,131.450 323.250 M89.606 324.633 C 89.609 325.055,89.795 325.670,90.018 326.000 C 90.315 326.438,90.352 326.276,90.156 325.400 C 89.827 323.929,89.598 323.610,89.606 324.633 M90.406 327.433 C 90.409 327.855,90.595 328.470,90.818 328.800 C 91.115 329.238,91.152 329.076,90.956 328.200 C 90.627 326.729,90.398 326.410,90.406 327.433 M130.909 328.800 C 130.909 329.790,130.987 330.195,131.082 329.700 C 131.178 329.205,131.178 328.395,131.082 327.900 C 130.987 327.405,130.909 327.810,130.909 328.800 M149.728 334.000 C 149.728 335.430,149.801 336.015,149.889 335.300 C 149.978 334.585,149.978 333.415,149.889 332.700 C 149.801 331.985,149.728 332.570,149.728 334.000 M131.268 336.800 C 131.288 337.839,131.918 339.546,131.932 338.600 C 131.938 338.160,131.789 337.440,131.600 337.000 C 131.389 336.510,131.261 336.432,131.268 336.800 M150.056 339.200 C 150.056 339.530,150.211 340.160,150.400 340.600 C 150.617 341.104,150.744 341.178,150.744 340.800 C 150.744 340.470,150.589 339.840,150.400 339.400 C 150.183 338.896,150.056 338.822,150.056 339.200 M132.244 342.200 C 132.573 343.671,132.802 343.990,132.794 342.967 C 132.791 342.545,132.605 341.930,132.382 341.600 C 132.085 341.162,132.048 341.324,132.244 342.200 M122.839 348.000 C 123.563 348.990,124.210 349.875,124.277 349.967 C 124.345 350.058,124.397 349.968,124.394 349.767 C 124.391 349.565,123.744 348.680,122.956 347.800 L 121.524 346.200 122.839 348.000 M251.730 349.900 C 260.271 349.960,274.131 349.960,282.530 349.900 C 290.928 349.840,283.940 349.790,267.000 349.790 C 250.060 349.790,243.188 349.840,251.730 349.900 M126.000 351.800 C 126.746 352.570,127.447 353.200,127.557 353.200 C 127.667 353.200,127.146 352.570,126.400 351.800 C 125.654 351.030,124.953 350.400,124.843 350.400 C 124.733 350.400,125.254 351.030,126.000 351.800 M302.200 351.427 C 302.860 351.769,303.951 352.533,304.623 353.124 C 305.296 353.716,305.054 353.435,304.085 352.500 C 303.116 351.565,302.025 350.801,301.661 350.802 C 301.275 350.804,301.499 351.063,302.200 351.427 M228.778 353.900 L 227.400 355.400 228.900 354.022 C 230.296 352.738,230.584 352.400,230.278 352.400 C 230.212 352.400,229.537 353.075,228.778 353.900 M102.667 354.806 C 103.059 355.470,103.798 356.505,104.310 357.106 C 104.821 357.708,104.575 357.165,103.763 355.900 C 102.224 353.503,101.428 352.707,102.667 354.806 M131.340 356.974 C 132.408 357.980,133.848 359.191,134.540 359.666 C 136.281 360.859,135.504 360.115,132.200 357.425 C 129.871 355.529,129.726 355.453,131.340 356.974 M160.000 355.725 C 160.000 355.794,160.585 356.379,161.300 357.025 L 162.600 358.200 161.425 356.900 C 160.330 355.688,160.000 355.416,160.000 355.725 M315.526 359.900 C 319.555 359.965,326.035 359.965,329.926 359.899 C 333.817 359.834,330.520 359.780,322.600 359.781 C 314.680 359.781,311.497 359.834,315.526 359.900 M165.974 360.724 C 166.509 361.159,167.499 361.819,168.174 362.191 L 169.400 362.867 168.426 362.076 C 167.891 361.641,166.901 360.981,166.226 360.609 L 165.000 359.933 165.974 360.724 M225.358 366.200 C 225.358 369.280,225.421 370.487,225.497 368.882 C 225.573 367.278,225.573 364.758,225.496 363.282 C 225.419 361.807,225.357 363.120,225.358 366.200 M108.296 362.600 C 108.750 363.260,109.629 364.250,110.250 364.800 C 110.999 365.464,110.859 365.196,109.832 364.000 C 107.736 361.557,107.315 361.174,108.296 362.600 M343.382 382.200 C 343.382 390.780,343.435 394.233,343.500 389.874 C 343.564 385.514,343.564 378.494,343.499 374.274 C 343.435 370.053,343.382 373.620,343.382 382.200 M113.600 368.525 C 113.600 368.594,114.185 369.179,114.900 369.825 L 116.200 371.000 115.025 369.700 C 113.930 368.488,113.600 368.216,113.600 368.525 M308.080 369.280 C 307.538 369.822,307.364 395.807,307.900 396.138 C 308.065 396.240,308.200 390.266,308.200 382.862 L 308.200 369.400 312.200 369.177 L 316.200 368.955 312.380 368.877 C 309.847 368.826,308.398 368.962,308.080 369.280 M323.637 369.356 C 323.327 369.729,323.212 371.604,323.288 375.056 L 323.400 380.200 328.800 380.200 L 334.200 380.200 334.312 375.056 C 334.455 368.505,334.715 368.800,328.800 368.800 C 325.275 368.800,323.983 368.939,323.637 369.356 M186.000 369.594 C 186.330 369.811,187.035 369.991,187.567 369.994 C 188.851 370.002,188.525 369.775,186.800 369.458 C 185.815 369.277,185.578 369.318,186.000 369.594 M333.912 374.700 L 334.023 380.000 328.812 380.000 L 323.600 380.000 323.600 374.867 C 323.600 368.664,323.128 369.153,328.978 369.288 L 333.800 369.400 333.912 374.700 M316.494 382.713 L 316.400 396.026 315.500 396.388 C 314.891 396.632,314.810 396.757,315.251 396.775 C 316.736 396.832,316.814 396.062,316.700 382.552 L 316.589 369.400 316.494 382.713 M118.000 372.600 C 118.746 373.370,119.447 374.000,119.557 374.000 C 119.667 374.000,119.146 373.370,118.400 372.600 C 117.654 371.830,116.953 371.200,116.843 371.200 C 116.733 371.200,117.254 371.830,118.000 372.600 M125.600 378.579 C 125.600 378.689,126.140 379.059,126.800 379.400 C 127.460 379.741,128.000 379.931,128.000 379.821 C 128.000 379.711,127.460 379.341,126.800 379.000 C 126.140 378.659,125.600 378.469,125.600 378.579 M131.200 381.964 C 131.750 382.414,132.380 382.783,132.600 382.785 C 133.028 382.788,132.305 382.234,131.000 381.560 C 130.469 381.285,130.536 381.421,131.200 381.964 M323.467 385.867 C 323.098 386.236,323.129 395.909,323.500 396.139 C 323.665 396.242,323.744 394.065,323.676 391.301 C 323.582 387.488,323.679 386.197,324.076 385.944 C 324.368 385.760,324.408 385.610,324.167 385.606 C 323.928 385.603,323.613 385.720,323.467 385.867 M326.711 385.893 C 327.651 385.978,329.091 385.977,329.911 385.891 C 330.730 385.805,329.960 385.736,328.200 385.737 C 326.440 385.739,325.770 385.809,326.711 385.893 M333.998 391.482 C 333.889 394.166,333.941 396.221,334.114 396.048 C 334.286 395.874,334.375 393.678,334.312 391.166 L 334.196 386.600 333.998 391.482 M157.633 391.344 C 157.725 391.423,158.340 391.608,159.000 391.756 C 159.876 391.952,160.038 391.915,159.600 391.618 C 159.060 391.253,157.232 390.998,157.633 391.344 M162.105 392.287 C 162.714 392.379,163.614 392.377,164.105 392.282 C 164.597 392.187,164.100 392.111,163.000 392.114 C 161.900 392.117,161.497 392.195,162.105 392.287 M169.511 393.093 C 170.451 393.178,171.891 393.177,172.711 393.091 C 173.530 393.005,172.760 392.936,171.000 392.937 C 169.240 392.939,168.570 393.009,169.511 393.093 M201.800 393.595 L 225.000 393.800 225.229 396.600 L 225.459 399.400 225.529 396.780 C 225.634 392.887,227.694 393.187,201.620 393.295 L 178.600 393.390 201.800 393.595 M225.240 401.433 C 225.262 402.075,225.433 403.050,225.620 403.600 C 225.849 404.274,225.884 403.949,225.728 402.600 C 225.469 400.350,225.179 399.659,225.240 401.433 M316.700 405.499 C 320.495 405.565,326.705 405.565,330.500 405.499 C 334.295 405.434,331.190 405.380,323.600 405.380 C 316.010 405.380,312.905 405.434,316.700 405.499 M228.391 409.588 C 228.857 410.241,229.442 410.902,229.691 411.056 C 229.941 411.211,229.641 410.676,229.025 409.868 C 227.688 408.115,227.184 407.892,228.391 409.588 M305.022 411.175 L 303.444 413.000 305.203 411.314 C 306.170 410.386,306.880 409.565,306.780 409.488 C 306.681 409.412,305.890 410.171,305.022 411.175 M235.891 413.889 C 236.601 413.977,237.861 413.979,238.691 413.892 C 239.521 413.805,238.940 413.733,237.400 413.731 C 235.860 413.729,235.181 413.800,235.891 413.889 M296.300 414.282 C 296.795 414.378,297.605 414.378,298.100 414.282 C 298.595 414.187,298.190 414.109,297.200 414.109 C 296.210 414.109,295.805 414.187,296.300 414.282 " stroke="none" fill="#8c72d0" fill-rule="evenodd"></path><path id="path4" d="M123.505 62.683 C 124.002 62.779,124.722 62.775,125.105 62.675 C 125.487 62.575,125.080 62.496,124.200 62.501 C 123.320 62.505,123.007 62.587,123.505 62.683 M336.101 182.200 C 336.105 183.080,336.187 183.393,336.283 182.895 C 336.379 182.398,336.375 181.678,336.275 181.295 C 336.175 180.913,336.096 181.320,336.101 182.200 M336.101 188.200 C 336.105 189.080,336.187 189.393,336.283 188.895 C 336.379 188.398,336.375 187.678,336.275 187.295 C 336.175 186.913,336.096 187.320,336.101 188.200 M309.381 196.900 L 307.800 198.600 309.500 197.019 C 311.081 195.548,311.384 195.200,311.081 195.200 C 311.016 195.200,310.251 195.965,309.381 196.900 M230.200 272.800 C 229.540 273.237,229.180 273.592,229.400 273.588 C 229.801 273.582,231.976 272.023,231.600 272.012 C 231.490 272.008,230.860 272.363,230.200 272.800 M140.981 303.300 L 139.400 305.000 141.100 303.419 C 142.035 302.549,142.800 301.784,142.800 301.719 C 142.800 301.416,142.452 301.719,140.981 303.300 M86.101 306.200 C 86.105 307.080,86.187 307.393,86.283 306.895 C 86.379 306.398,86.375 305.678,86.275 305.295 C 86.175 304.913,86.096 305.320,86.101 306.200 M150.144 334.000 C 150.144 336.090,150.212 336.945,150.294 335.900 C 150.376 334.855,150.376 333.145,150.294 332.100 C 150.212 331.055,150.144 331.910,150.144 334.000 M129.200 354.600 C 129.946 355.370,130.647 356.000,130.757 356.000 C 130.867 356.000,130.346 355.370,129.600 354.600 C 128.854 353.830,128.153 353.200,128.043 353.200 C 127.933 353.200,128.454 353.830,129.200 354.600 M159.800 355.200 C 160.659 356.080,161.452 356.800,161.562 356.800 C 161.672 356.800,161.059 356.080,160.200 355.200 C 159.341 354.320,158.548 353.600,158.438 353.600 C 158.328 353.600,158.941 354.320,159.800 355.200 M315.926 359.500 C 319.955 359.565,326.435 359.565,330.326 359.499 C 334.217 359.434,330.920 359.380,323.000 359.381 C 315.080 359.381,311.897 359.434,315.926 359.500 M224.954 360.177 C 224.832 360.494,224.803 361.079,224.889 361.477 C 224.987 361.928,225.124 361.712,225.254 360.900 C 225.471 359.538,225.330 359.196,224.954 360.177 M110.800 366.125 C 110.800 366.194,111.385 366.779,112.100 367.425 L 113.400 368.600 112.225 367.300 C 111.130 366.088,110.800 365.816,110.800 366.125 M343.783 382.400 C 343.783 391.530,343.835 395.265,343.900 390.700 C 343.964 386.135,343.964 378.665,343.900 374.100 C 343.835 369.535,343.783 373.270,343.783 382.400 M224.800 370.526 C 224.800 371.114,223.852 371.197,215.900 371.300 L 207.000 371.416 215.913 371.508 C 224.814 371.600,226.306 371.373,225.049 370.116 C 224.912 369.979,224.800 370.163,224.800 370.526 M316.179 382.800 C 316.179 389.950,316.233 392.875,316.299 389.300 C 316.366 385.725,316.366 379.875,316.299 376.300 C 316.233 372.725,316.179 375.650,316.179 382.800 M326.500 386.296 C 327.765 386.375,329.835 386.375,331.100 386.296 C 332.365 386.216,331.330 386.151,328.800 386.151 C 326.270 386.151,325.235 386.216,326.500 386.296 M323.731 389.800 C 323.733 391.340,323.805 391.921,323.892 391.091 C 323.979 390.261,323.977 389.001,323.889 388.291 C 323.800 387.581,323.729 388.260,323.731 389.800 M308.142 391.400 C 308.141 393.380,308.208 394.240,308.292 393.312 C 308.376 392.384,308.377 390.764,308.295 389.712 C 308.212 388.660,308.143 389.420,308.142 391.400 M323.693 394.000 C 323.693 394.770,323.775 395.085,323.876 394.700 C 323.976 394.315,323.976 393.685,323.876 393.300 C 323.775 392.915,323.693 393.230,323.693 394.000 M176.700 393.889 C 177.415 393.978,178.585 393.978,179.300 393.889 C 180.015 393.801,179.430 393.728,178.000 393.728 C 176.570 393.728,175.985 393.801,176.700 393.889 M309.911 395.893 C 310.851 395.978,312.291 395.977,313.111 395.891 C 313.930 395.805,313.160 395.736,311.400 395.737 C 309.640 395.739,308.970 395.809,309.911 395.893 M326.700 395.895 C 327.855 395.976,329.745 395.976,330.900 395.895 C 332.055 395.814,331.110 395.748,328.800 395.748 C 326.490 395.748,325.545 395.814,326.700 395.895 M252.670 414.700 C 261.289 414.760,275.509 414.760,284.270 414.700 C 293.032 414.640,285.980 414.591,268.600 414.590 C 251.220 414.590,244.052 414.640,252.670 414.700 " stroke="none" fill="#c9beec" fill-rule="evenodd"></path><path id="path5" d="M142.667 364.166 C 142.873 364.752,142.803 364.855,142.368 364.607 C 141.927 364.355,141.904 364.395,142.265 364.786 C 143.044 365.630,143.713 365.101,143.013 364.195 C 142.433 363.445,142.413 363.443,142.667 364.166 M176.705 393.483 C 177.202 393.579,177.922 393.575,178.305 393.475 C 178.687 393.375,178.280 393.296,177.400 393.301 C 176.520 393.305,176.207 393.387,176.705 393.483 M254.905 414.287 C 255.514 414.379,256.414 414.377,256.905 414.282 C 257.397 414.187,256.900 414.111,255.800 414.114 C 254.700 414.117,254.297 414.195,254.905 414.287 M267.524 414.299 C 270.673 414.367,275.713 414.367,278.724 414.299 C 281.736 414.231,279.160 414.176,273.000 414.176 C 266.840 414.176,264.376 414.232,267.524 414.299 M286.105 414.287 C 286.714 414.379,287.614 414.377,288.105 414.282 C 288.597 414.187,288.100 414.111,287.000 414.114 C 285.900 414.117,285.497 414.195,286.105 414.287 M291.300 414.291 C 292.125 414.378,293.475 414.378,294.300 414.291 C 295.125 414.205,294.450 414.134,292.800 414.134 C 291.150 414.134,290.475 414.205,291.300 414.291 " stroke="none" fill="#8c7cdc" fill-rule="evenodd"></path><path id="path6" d="M122.705 39.883 C 123.202 39.979,123.922 39.975,124.305 39.875 C 124.687 39.775,124.280 39.696,123.400 39.701 C 122.520 39.705,122.207 39.787,122.705 39.883 M85.763 87.600 C 85.763 91.230,85.823 92.715,85.898 90.900 C 85.972 89.085,85.972 86.115,85.898 84.300 C 85.823 82.485,85.763 83.970,85.763 87.600 M85.746 98.200 C 85.747 100.400,85.814 101.249,85.895 100.087 C 85.976 98.924,85.976 97.124,85.893 96.087 C 85.811 95.049,85.745 96.000,85.746 98.200 M85.758 107.800 C 85.758 110.880,85.821 112.087,85.897 110.482 C 85.973 108.878,85.973 106.358,85.896 104.882 C 85.819 103.407,85.757 104.720,85.758 107.800 M85.740 118.800 C 85.740 120.670,85.809 121.435,85.893 120.500 C 85.977 119.565,85.977 118.035,85.893 117.100 C 85.809 116.165,85.740 116.930,85.740 118.800 M85.709 127.600 C 85.709 128.590,85.787 128.995,85.882 128.500 C 85.978 128.005,85.978 127.195,85.882 126.700 C 85.787 126.205,85.709 126.610,85.709 127.600 M85.701 131.400 C 85.705 132.280,85.787 132.593,85.883 132.095 C 85.979 131.598,85.975 130.878,85.875 130.495 C 85.775 130.113,85.696 130.520,85.701 131.400 M85.724 138.600 C 85.726 139.920,85.801 140.412,85.890 139.693 C 85.979 138.974,85.977 137.894,85.886 137.293 C 85.795 136.692,85.722 137.280,85.724 138.600 M85.744 145.600 C 85.744 147.690,85.812 148.545,85.894 147.500 C 85.976 146.455,85.976 144.745,85.894 143.700 C 85.812 142.655,85.744 143.510,85.744 145.600 M85.728 152.400 C 85.728 153.830,85.801 154.415,85.889 153.700 C 85.978 152.985,85.978 151.815,85.889 151.100 C 85.801 150.385,85.728 150.970,85.728 152.400 M85.790 187.400 C 85.790 204.560,85.840 211.522,85.900 202.870 C 85.960 194.219,85.960 180.179,85.900 171.670 C 85.840 163.162,85.790 170.240,85.790 187.400 M313.714 185.400 C 313.717 186.500,313.795 186.903,313.887 186.295 C 313.979 185.686,313.977 184.786,313.882 184.295 C 313.787 183.803,313.711 184.300,313.714 185.400 M85.773 229.800 C 85.773 235.300,85.830 237.605,85.899 234.923 C 85.968 232.241,85.968 227.741,85.899 224.923 C 85.830 222.105,85.774 224.300,85.773 229.800 M85.775 257.600 C 85.775 263.650,85.831 266.125,85.899 263.100 C 85.967 260.075,85.967 255.125,85.899 252.100 C 85.831 249.075,85.775 251.550,85.775 257.600 M85.772 278.000 C 85.772 283.170,85.829 285.285,85.899 282.700 C 85.968 280.115,85.968 275.885,85.899 273.300 C 85.829 270.715,85.772 272.830,85.772 278.000 M85.734 290.400 C 85.734 292.050,85.805 292.725,85.891 291.900 C 85.978 291.075,85.978 289.725,85.891 288.900 C 85.805 288.075,85.734 288.750,85.734 290.400 M251.670 349.100 C 259.739 349.160,273.059 349.160,281.270 349.100 C 289.482 349.039,282.880 348.990,266.600 348.990 C 250.320 348.990,243.602 349.039,251.670 349.100 M308.581 370.104 C 308.475 370.382,308.438 376.007,308.500 382.604 L 308.612 394.600 308.706 382.315 L 308.800 370.030 312.500 369.898 L 316.200 369.766 312.487 369.683 C 309.806 369.623,308.721 369.740,308.581 370.104 M326.515 369.896 C 327.788 369.976,329.768 369.975,330.915 369.894 C 332.062 369.814,331.020 369.749,328.600 369.750 C 326.180 369.751,325.242 369.816,326.515 369.896 M324.144 374.800 C 324.144 376.890,324.212 377.745,324.294 376.700 C 324.376 375.655,324.376 373.945,324.294 372.900 C 324.212 371.855,324.144 372.710,324.144 374.800 M329.000 379.600 L 324.600 379.842 328.876 379.921 C 331.385 379.967,333.255 379.835,333.400 379.600 C 333.536 379.380,333.592 379.236,333.524 379.279 C 333.456 379.323,331.420 379.467,329.000 379.600 M324.101 392.600 C 324.105 393.480,324.187 393.793,324.283 393.295 C 324.379 392.798,324.375 392.078,324.275 391.695 C 324.175 391.313,324.096 391.720,324.101 392.600 " stroke="none" fill="#dbcaf7" fill-rule="evenodd"></path><path id="path7" d="" stroke="none" fill="#ccbcf4" fill-rule="evenodd"></path><path id="path8" d="M120.100 39.876 C 120.485 39.976,121.115 39.976,121.500 39.876 C 121.885 39.775,121.570 39.693,120.800 39.693 C 120.030 39.693,119.715 39.775,120.100 39.876 M125.505 39.883 C 126.002 39.979,126.722 39.975,127.105 39.875 C 127.487 39.775,127.080 39.696,126.200 39.701 C 125.320 39.705,125.007 39.787,125.505 39.883 M116.900 40.276 C 117.285 40.376,117.915 40.376,118.300 40.276 C 118.685 40.175,118.370 40.093,117.600 40.093 C 116.830 40.093,116.515 40.175,116.900 40.276 M98.175 50.100 L 97.000 51.400 98.300 50.225 C 99.512 49.130,99.784 48.800,99.475 48.800 C 99.406 48.800,98.821 49.385,98.175 50.100 M123.505 63.083 C 124.002 63.179,124.722 63.175,125.105 63.075 C 125.487 62.975,125.080 62.896,124.200 62.901 C 123.320 62.905,123.007 62.987,123.505 63.083 M132.000 65.220 C 133.387 66.161,134.178 66.435,133.200 65.636 C 132.650 65.186,132.020 64.817,131.800 64.815 C 131.580 64.813,131.670 64.996,132.000 65.220 M85.454 79.856 C 85.123 82.273,85.210 292.221,85.545 297.200 C 85.685 299.290,85.800 250.825,85.800 189.500 C 85.800 128.175,85.779 78.000,85.754 78.000 C 85.729 78.000,85.594 78.835,85.454 79.856 M188.000 99.564 C 188.550 100.014,189.180 100.383,189.400 100.385 C 189.828 100.388,189.105 99.834,187.800 99.160 C 187.269 98.885,187.336 99.021,188.000 99.564 M223.200 121.220 C 224.587 122.161,225.378 122.435,224.400 121.636 C 223.850 121.186,223.220 120.817,223.000 120.815 C 222.780 120.813,222.870 120.996,223.200 121.220 M250.000 137.620 C 251.387 138.561,252.178 138.835,251.200 138.036 C 250.650 137.586,250.020 137.217,249.800 137.215 C 249.580 137.213,249.670 137.396,250.000 137.620 M298.486 140.200 C 299.295 140.750,300.099 141.200,300.272 141.200 C 300.444 141.200,299.923 140.750,299.114 140.200 C 298.305 139.650,297.501 139.200,297.328 139.200 C 297.156 139.200,297.677 139.650,298.486 140.200 M325.000 157.600 C 326.083 158.700,327.060 159.600,327.170 159.600 C 327.280 159.600,326.483 158.700,325.400 157.600 C 324.317 156.500,323.340 155.600,323.230 155.600 C 323.120 155.600,323.917 156.500,325.000 157.600 M295.000 233.200 C 294.340 233.637,293.980 233.992,294.200 233.988 C 294.601 233.982,296.776 232.423,296.400 232.412 C 296.290 232.408,295.660 232.763,295.000 233.200 M250.411 260.620 C 249.647 261.159,249.197 261.599,249.411 261.598 C 249.625 261.597,250.340 261.153,251.000 260.612 C 252.541 259.349,252.205 259.353,250.411 260.620 M159.400 290.235 L 158.200 291.266 159.600 290.363 C 161.396 289.204,161.401 289.200,160.967 289.202 C 160.765 289.203,160.060 289.668,159.400 290.235 M150.600 295.600 C 149.940 296.037,149.580 296.392,149.800 296.388 C 150.201 296.382,152.376 294.823,152.000 294.812 C 151.890 294.808,151.260 295.163,150.600 295.600 M108.046 303.200 C 108.027 303.750,108.187 304.470,108.400 304.800 C 108.894 305.564,108.894 304.742,108.400 303.200 L 108.080 302.200 108.046 303.200 M120.800 344.000 C 121.270 344.660,121.744 345.200,121.854 345.200 C 121.964 345.200,121.670 344.660,121.200 344.000 C 120.730 343.340,120.256 342.800,120.146 342.800 C 120.036 342.800,120.330 343.340,120.800 344.000 M296.000 348.958 C 296.000 349.045,296.705 349.183,297.566 349.265 C 298.428 349.348,299.047 349.276,298.943 349.107 C 298.753 348.800,296.000 348.660,296.000 348.958 M99.615 351.000 C 99.617 351.220,99.986 351.850,100.436 352.400 C 100.979 353.064,101.115 353.131,100.840 352.600 C 100.166 351.295,99.612 350.572,99.615 351.000 M344.183 382.400 C 344.183 391.530,344.235 395.265,344.300 390.700 C 344.364 386.135,344.364 378.665,344.300 374.100 C 344.235 369.535,344.183 373.270,344.183 382.400 M113.400 369.200 C 114.928 370.740,116.269 372.000,116.379 372.000 C 116.489 372.000,115.328 370.740,113.800 369.200 C 112.272 367.660,110.931 366.400,110.821 366.400 C 110.711 366.400,111.872 367.660,113.400 369.200 M333.198 374.518 L 333.396 379.400 333.512 374.834 C 333.575 372.322,333.486 370.126,333.314 369.952 C 333.141 369.779,333.089 371.834,333.198 374.518 M196.433 370.544 C 196.525 370.623,197.140 370.808,197.800 370.956 C 198.676 371.152,198.838 371.115,198.400 370.818 C 197.860 370.453,196.032 370.198,196.433 370.544 M328.100 379.476 C 328.485 379.576,329.115 379.576,329.500 379.476 C 329.885 379.375,329.570 379.293,328.800 379.293 C 328.030 379.293,327.715 379.375,328.100 379.476 M333.351 390.800 C 333.351 393.330,333.416 394.365,333.496 393.100 C 333.575 391.835,333.575 389.765,333.496 388.500 C 333.416 387.235,333.351 388.270,333.351 390.800 M324.109 389.600 C 324.109 390.590,324.187 390.995,324.282 390.500 C 324.378 390.005,324.378 389.195,324.282 388.700 C 324.187 388.205,324.109 388.610,324.109 389.600 M166.500 393.487 C 167.105 393.578,168.095 393.578,168.700 393.487 C 169.305 393.395,168.810 393.320,167.600 393.320 C 166.390 393.320,165.895 393.395,166.500 393.487 M187.929 394.300 C 194.820 394.361,205.980 394.361,212.729 394.300 C 219.478 394.238,213.840 394.188,200.200 394.188 C 186.560 394.188,181.038 394.238,187.929 394.300 M327.312 395.495 C 328.364 395.577,329.984 395.576,330.912 395.492 C 331.840 395.408,330.980 395.341,329.000 395.342 C 327.020 395.343,326.260 395.412,327.312 395.495 M308.349 406.700 C 307.864 407.319,307.874 407.343,308.435 406.905 C 308.905 406.538,312.734 406.382,323.235 406.300 L 337.400 406.189 323.149 406.095 C 309.986 406.007,308.856 406.053,308.349 406.700 " stroke="none" fill="#e4dcfc" fill-rule="evenodd"></path></g></svg>